<?xml version="1.0" encoding="utf-8"?>
<!-- Generator: Adobe Illustrator 18.0.0, SVG Export Plug-In . SVG Version: 6.00 Build 0)  -->
<!DOCTYPE svg PUBLIC "-//W3C//DTD SVG 1.1//EN" "http://www.w3.org/Graphics/SVG/1.1/DTD/svg11.dtd">
<svg version="1.1" id="wollastonlogo" xmlns="http://www.w3.org/2000/svg" xmlns:xlink="http://www.w3.org/1999/xlink" x="0px" y="0px"
	 width="200px" height="300px" viewBox="0 0 167 136" style="enable-background:new 0 0 167 136;" xml:space="preserve">

	<defs>
		<style type="text/css">
			.st0{fill:none;stroke:#000000;stroke-width:3;stroke-miterlimit:10;}

			.st0{
				stroke-dasharray:800;
				stroke-dashoffset:0;
				-webkit-animation:dash 10s linear forwards;
				-o-animation:dash 10s linear forwards;
				-moz-animation:dash 10s linear forwards;
				animation:dash 10s linear forwards;
			}

			#wollastonlogo:hover .st0{
				fill:#000;
			}

			@-webkit-keyframes dash{
				from{
					stroke-dashoffset:800;
				}
				to{
					stroke-dashoffset:0;
				}
			}
		</style>
	</defs>
	
<line class="st0" x1="11" y1="7" x2="53" y2="136"/>
<line class="st0" x1="53" y1="136" x2="77" y2="136"/>
<line class="st0" x1="11" y1="7" x2="5" y2="7"/>
<line class="st0" x1="5" y1="7" x2="44" y2="7"/>
<line class="st0" x1="38" y1="7" x2="44" y2="7"/>
<line class="st0" x1="38" y1="7" x2="65" y2="87"/>
<line class="st0" x1="65" y1="87" x2="71" y2="15"/>
<line class="st0" x1="71" y1="15" x2="65" y2="7"/>
<line class="st0" x1="65" y1="7" x2="95" y2="7"/>
<line class="st0" x1="89" y1="15" x2="95" y2="7"/>
<line class="st0" x1="77" y1="136" x2="89" y2="51"/>
<line class="st0" x1="89" y1="51" x2="125" y2="136"/>
<line class="st0" x1="125" y1="136" x2="149" y2="136"/>
<line class="st0" x1="89" y1="15" x2="125" y2="87"/>
<line class="st0" x1="125" y1="87" x2="137" y2="15"/>
<line class="st0" x1="137" y1="15" x2="125" y2="7"/>
<line class="st0" x1="125" y1="7" x2="167" y2="7"/>
<line class="st0" x1="137" y1="136" x2="158" y2="15"/>
<line class="st0" x1="158" y1="15" x2="167" y2="7"/>
</svg>
