<?xml version="1.0" encoding="utf-8"?>
<!-- Generator: Adobe Illustrator 18.0.0, SVG Export Plug-In . SVG Version: 6.00 Build 0)  -->
<!DOCTYPE svg PUBLIC "-//W3C//DTD SVG 1.1//EN" "http://www.w3.org/Graphics/SVG/1.1/DTD/svg11.dtd">
<svg version="1.1" id="Layer_1" xmlns="http://www.w3.org/2000/svg" xmlns:xlink="http://www.w3.org/1999/xlink" x="0px" y="0px"
	 viewBox="0 0 612 792" style="enable-background:new 0 0 612 792;" xml:space="preserve">
<style type="text/css">
	.st0{fill:none;stroke:#000000;stroke-miterlimit:10;}
</style>
<line class="st0" x1="128.5" y1="274.5" x2="157" y2="274.5"/>
<line class="st0" x1="128.5" y1="274.5" x2="140.5" y2="279"/>
<line class="st0" x1="140.5" y1="279" x2="160" y2="340.5"/>
<line class="st0" x1="157" y1="280.5" x2="164.5" y2="274.5"/>
<line class="st0" x1="148.5" y1="274.5" x2="160.5" y2="274.5"/>
<line class="st0" x1="158.833" y1="274.5" x2="164.5" y2="274.5"/>
<line class="st0" x1="160" y1="340.5" x2="173.333" y2="340.5"/>
<line class="st0" x1="173.333" y1="340.5" x2="187.333" y2="312.333"/>
<line class="st0" x1="157" y1="280.5" x2="168.333" y2="319.833"/>
<line class="st0" x1="168.333" y1="319.833" x2="185.333" y2="292.833"/>
<line class="st0" x1="194.333" y1="341.667" x2="122.333" y2="261.667"/>
<line class="st0" x1="228.333" y1="295.667" x2="211.333" y2="257.667"/>
<line class="st0" x1="211.333" y1="257.667" x2="207.333" y2="255.667"/>
<line class="st0" x1="207.333" y1="255.667" x2="225.333" y2="255.667"/>
<line class="st0" x1="225.333" y1="255.667" x2="222.333" y2="257.667"/>
</svg>
